<?xml version="1.0" standalone="no"?>
<!DOCTYPE svg PUBLIC "-//W3C//DTD SVG 20010904//EN"
 "http://www.w3.org/TR/2001/REC-SVG-20010904/DTD/svg10.dtd">
<svg version="1.0" xmlns="http://www.w3.org/2000/svg"
 width="16.000000pt" height="16.000000pt" viewBox="0 0 16.000000 16.000000"
 preserveAspectRatio="xMidYMid meet">
<metadata>
Created by potrace 1.11, written by Peter Selinger 2001-2013
</metadata>
<g transform="translate(0.000000,16.000000) scale(0.002286,-0.002286)"
fill="#000000" stroke="none">
<path d="M1670 5509 c-154 -15 -251 -39 -450 -112 -286 -104 -568 -290 -804
-532 -98 -100 -133 -144 -178 -220 -34 -57 -69 -151 -83 -224 -12 -58 -7 -193
10 -254 18 -69 54 -157 65 -157 4 0 14 28 24 62 39 142 182 391 302 528 86 99
213 226 294 294 239 201 592 413 737 440 11 2 44 12 74 21 30 9 91 18 136 20
67 4 85 2 102 -13 75 -63 -22 -285 -307 -702 -130 -190 -608 -867 -639 -905
-43 -52 -488 -708 -547 -805 -15 -25 -48 -79 -73 -120 -76 -124 -151 -281
-176 -369 -64 -221 27 -408 192 -395 48 4 88 31 71 48 -15 15 -12 41 16 124
55 165 181 399 291 540 78 100 346 422 442 532 36 41 82 93 101 114 19 22 58
65 85 95 28 31 55 61 60 67 146 167 444 475 631 654 234 223 424 363 514 377
26 4 50 -8 50 -25 0 -39 -45 -109 -314 -492 -168 -240 -306 -447 -306 -459 0
-5 -3 -11 -7 -13 -12 -5 -139 -218 -225 -378 -123 -227 -153 -292 -195 -411
-40 -118 -46 -145 -47 -224 -1 -82 1 -94 26 -131 66 -102 203 -164 263 -120
17 12 18 17 7 40 -27 60 -2 171 74 331 35 74 131 218 164 245 3 3 30 34 60 70
48 59 152 179 190 220 8 9 30 34 49 55 115 134 217 241 471 495 157 157 313
310 348 340 114 99 293 228 374 269 102 53 173 55 164 5 -7 -36 -102 -185
-275 -429 -62 -88 -336 -497 -368 -550 -17 -28 -94 -159 -135 -231 -59 -103
-175 -336 -209 -420 -37 -94 -95 -285 -104 -346 -45 -302 76 -580 322 -744 55
-36 193 -104 212 -104 6 0 19 -5 29 -10 9 -6 59 -19 111 -29 116 -23 365 -26
465 -5 37 8 81 16 99 19 46 8 330 74 622 144 138 33 264 63 280 66 43 7 74 13
93 19 9 3 33 8 52 11 19 3 71 12 115 20 77 14 95 16 215 30 30 4 66 8 80 10
67 10 240 19 370 19 130 0 316 -11 330 -19 3 -2 26 -6 50 -9 64 -8 193 -42
275 -73 162 -60 269 -128 392 -245 45 -43 87 -78 93 -78 26 0 50 22 50 46 0
45 -205 221 -375 321 -176 103 -422 188 -607 209 -29 3 -78 9 -108 13 -99 12
-381 3 -472 -14 -11 -3 -39 -6 -62 -9 -63 -8 -115 -16 -191 -31 -38 -8 -86
-17 -105 -20 -75 -13 -303 -58 -480 -96 -270 -58 -616 -128 -669 -135 -25 -3
-53 -8 -62 -9 -9 -2 -40 -6 -69 -10 -29 -4 -62 -9 -74 -12 -12 -3 -110 -6
-219 -8 -149 -2 -215 1 -265 12 -285 65 -349 280 -196 652 64 154 318 631 369
691 7 8 14 20 16 26 4 11 182 292 380 599 217 336 329 534 370 654 44 128 5
256 -94 307 -103 54 -297 -4 -559 -167 -75 -46 -279 -195 -323 -236 -11 -10
-44 -38 -74 -63 -143 -118 -427 -410 -624 -640 -50 -59 -43 -45 54 97 331 484
424 636 489 798 31 76 35 212 8 261 -109 199 -357 135 -763 -196 -178 -145
-450 -414 -661 -655 -34 -39 -73 -83 -88 -100 -34 -38 50 79 224 311 367 490
591 891 606 1088 7 86 -7 130 -62 196 -96 117 -284 171 -514 149z"/>
</g>
</svg>
